/* XPM */
static char *magick[] = {
/* columns rows colors chars-per-pixel */
"24 24 106 2",
"   c Gray0",
".  c #150b0c",
"X  c #11110f",
"o  c Gray31",
"O  c Gray48",
"+  c #812f36",
"@  c #90353d",
"#  c #9f3c44",
"$  c #a13c45",
"%  c #a83f48",
"&  c #b5444e",
"*  c #bb555d",
"=  c #bb565f",
"-  c #bc5760",
";  c #bd5a62",
":  c #c0636b",
">  c #94958e",
",  c #939393",
"<  c #979890",
"1  c #989991",
"2  c #9a9b93",
"3  c #9c9e96",
"4  c #9e9f98",
"5  c #9fa099",
"6  c #9fa199",
"7  c #a0a29b",
"8  c #a1a29a",
"9  c #a1a39b",
"0  c #a5a69f",
"q  c #a6a8a0",
"w  c #a8a9a1",
"e  c #a8a9a2",
"r  c #a8aaa2",
"t  c #aaaca5",
"y  c #adaea6",
"u  c #adafa6",
"i  c #b0b1a9",
"p  c #b0b2aa",
"a  c #b1b3ab",
"s  c #b2b3ab",
"d  c #b3b4ac",
"f  c #b5b7af",
"g  c #b1b1b1",
"h  c #b4b5b0",
"j  c #b6b8b0",
"k  c #b7b8b0",
"l  c #babbb3",
"z  c #babcb4",
"x  c #bbbcb5",
"c  c #bcbdb5",
"v  c #bcbeb6",
"b  c #b9b9b9",
"n  c #bfc0b8",
"m  c #bfc0bb",
"M  c #c0c2ba",
"N  c #c0c2bb",
"B  c #c1c2ba",
"V  c #c2c4bc",
"C  c #c4c5bd",
"Z  c #c4c6be",
"A  c #c5c7be",
"S  c #c5c7bf",
"D  c #c6c7c2",
"F  c #c6c8c0",
"G  c #c8c9c2",
"H  c #c8cac1",
"J  c #c9cac2",
"K  c #c9cbc3",
"L  c #cbccc4",
"P  c #cbccc5",
"I  c #cccec6",
"U  c #cdcec6",
"Y  c #cfd0c9",
"T  c #cfd1c8",
"R  c #cfd0cb",
"E  c #d0d1c9",
"W  c #d0d2ca",
"Q  c #d1d3cb",
"!  c #d1d2cf",
"~  c #d3d5cd",
"^  c #d4d5cd",
"/  c #d4d6ce",
"(  c #d5d6ce",
")  c #d5d7cf",
"_  c #d6d7cf",
"`  c #d1d1d0",
"'  c #d4d5d2",
"]  c #d6d7d0",
"[  c #d5d5d5",
"{  c #d6d8d0",
"}  c #d7d8d0",
"|  c #d7d9d1",
" . c #d9dad5",
".. c #dbdcd5",
"X. c #d9d9d8",
"o. c #dedfda",
"O. c Gray87",
"+. c #e4e4e1",
"@. c #e6e7e2",
"#. c #ebebe9",
"$. c #ececea",
"%. c #f2f2f1",
"&. c #f5f5f4",
"*. c #f5f6f4",
"=. c Gray100",
"-. c None",
/* pixels */
"-.-.-.-.-.-.-.-.-.-.-.-.-.-.-.-.-.-.-.-.-.-.-.-.",
"-.-.-.-.-.-.-.-.-.-.-.-.-.-.-.-.-.-.-.-.-.-.-.-.",
"-.-.-.-.-.-.-.-.          -.-.-.-.-.-.-.-.-.-.-.",
"-.-.-.-.-.-.    [ =.=.[ g     -.-.-.-.-.-.-.-.-.",
"-.-.-.-.-.  [ =.=.=.=.=.=.[ g   -.-.-.-.-.-.-.-.",
"-.-.-.-.  [ =.#.h 7 5 t D *.[ [   -.-.-.-.-.-.-.",
"-.-.-.  g =.! < 6 w u s j z X [ g   -.-.-.-.-.-.",
"-.-.-.  [ $.1 9 i x n V B     ` [   -.-.-.-.-.-.",
"-.-.  g O.h 3     S P U     A o.[ ,   -.-.-.-.-.",
"-.-.  [ =.4 8 f     T     W I Q [ ,   -.-.-.-.-.",
"-.-.  O.=.2 q x H       ] ) ^ ~ [ ,   -.-.-.-.-.",
"-.-.  [ =.0 e l J >   1 { | | ..[ ,   -.-.-.-.-.",
"-.-.  g O.m r f C I p } { | | @.[ ,   -.-.-.-.-.",
"-.-.-.  [ %.y a c F Y / ( _ | ` [   -.-.-.-.-.-.",
"-.-.-.  g O.+.d k v Z K L E ' [ o   -.-.-.    -.",
"-.-.-.-.  b O.&.R N M G  .X.[ g . #   -.  &   -.",
"-.-.-.-.-.  b O.O.=.=.O.[ g ,     &     = +   -.",
"-.-.-.-.-.-.    g b b g O     -.-.  & * @   -.-.",
"-.-.-.-.-.-.-.-.          -.-.-.-.  & &   -.-.-.",
"-.-.-.-.-.-.-.-.-.-.-.-.-.-.-.-.  ; & &   -.-.-.",
"-.-.-.-.-.-.-.-.-.-.-.-.-.-.-.  - @     $   -.-.",
"-.-.-.-.-.-.-.-.-.-.-.-.-.-.  : @   -.  %   -.-.",
"-.-.-.-.-.-.-.-.-.-.-.-.-.-.      -.-.-.    -.-.",
"-.-.-.-.-.-.-.-.-.-.-.-.-.-.-.-.-.-.-.-.-.-.-.-."
};
