/* XPM */
static const char *left[] = {
/* width height num_colors chars_per_pixel */
"    19    19        2            1",
/* colors */
". c #ffffff",
"# c #000000",
/* pixels */
"...................",
"...................",
"..........#........",
".........##........",
"........###........",
".......####........",
"......#####........",
".....############..",
"....#############..",
"...##############..",
"....#############..",
".....############..",
"......#####........",
".......####........",
"........###........",
".........##........",
"..........#........",
"...................",
"..................."
};
